<svg width="24" height="24" viewBox="0 0 24 24" fill="none" xmlns="http://www.w3.org/2000/svg">
<mask id="mask0_59_112" style="mask-type:alpha" maskUnits="userSpaceOnUse" x="0" y="0" width="24" height="24">
<rect width="24" height="24" fill="#D9D9D9"/>
</mask>
<g mask="url(#mask0_59_112)">
<path d="M6.75 19.25C5.58333 18.0833 5 16.6667 5 15V9L10 14L8.6 15.425L7 13.825V15C7 16.1 7.39167 17.0417 8.175 17.825C8.95833 18.6083 9.9 19 11 19C12.1 19 13.0417 18.6083 13.825 17.825C14.6083 17.0417 15 16.1 15 15V11.825C14.4 11.5917 13.9167 11.2208 13.55 10.7125C13.1833 10.2042 13 9.63333 13 9C13 8.36667 13.1833 7.79583 13.55 7.2875C13.9167 6.77917 14.4 6.40833 15 6.175V2H17V6.175C17.6 6.40833 18.0833 6.77917 18.45 7.2875C18.8167 7.79583 19 8.36667 19 9C19 9.63333 18.8167 10.2083 18.45 10.725C18.0833 11.2417 17.6 11.6083 17 11.825V15C17 16.6667 16.4167 18.0833 15.25 19.25C14.0833 20.4167 12.6667 21 11 21C9.33333 21 7.91667 20.4167 6.75 19.25ZM16.7125 9.7125C16.9042 9.52083 17 9.28333 17 9C17 8.71667 16.9042 8.47917 16.7125 8.2875C16.5208 8.09583 16.2833 8 16 8C15.7167 8 15.4792 8.09583 15.2875 8.2875C15.0958 8.47917 15 8.71667 15 9C15 9.28333 15.0958 9.52083 15.2875 9.7125C15.4792 9.90417 15.7167 10 16 10C16.2833 10 16.5208 9.90417 16.7125 9.7125Z" fill="#1C1B1F"/>
</g>
</svg>
