<svg width="24" height="24" viewBox="0 0 24 24" fill="none" xmlns="http://www.w3.org/2000/svg">
<mask id="mask0_59_124" style="mask-type:alpha" maskUnits="userSpaceOnUse" x="0" y="0" width="24" height="24">
<rect width="24" height="24" fill="#D9D9D9"/>
</mask>
<g mask="url(#mask0_59_124)">
<path d="M13.2499 22C13.0666 22 12.8957 21.9542 12.7374 21.8625C12.5791 21.7708 12.4582 21.65 12.3749 21.5C12.2916 21.35 12.2499 21.1833 12.2499 21C12.2499 20.8167 12.2999 20.6417 12.3999 20.475L16.6499 13.475C16.7499 13.3083 16.8749 13.1833 17.0249 13.1C17.1749 13.0167 17.3332 12.975 17.4999 12.975C17.6666 12.975 17.8249 13.0167 17.9749 13.1C18.1249 13.1833 18.2499 13.3083 18.3499 13.475L22.5999 20.475C22.6999 20.6417 22.7499 20.8167 22.7499 21C22.7499 21.1833 22.7082 21.35 22.6249 21.5C22.5416 21.65 22.4249 21.7708 22.2749 21.8625C22.1249 21.9542 21.9499 22 21.7499 22H13.2499ZM17.8499 20.85C17.9499 20.75 17.9999 20.6333 17.9999 20.5C17.9999 20.3667 17.9499 20.25 17.8499 20.15C17.7499 20.05 17.6332 20 17.4999 20C17.3666 20 17.2499 20.05 17.1499 20.15C17.0499 20.25 16.9999 20.3667 16.9999 20.5C16.9999 20.6333 17.0499 20.75 17.1499 20.85C17.2499 20.95 17.3666 21 17.4999 21C17.6332 21 17.7499 20.95 17.8499 20.85ZM8.0749 20C7.89157 20 7.72074 19.9542 7.5624 19.8625C7.40407 19.7708 7.28324 19.6417 7.1999 19.475L5.2499 16H6.6999L7.6999 18H9.9999V17H8.2999L7.2999 15H4.6999L3.2749 12.5C3.24157 12.4167 3.2124 12.3333 3.1874 12.25C3.1624 12.1667 3.1499 12.0833 3.1499 12C3.1499 11.9333 3.19157 11.7667 3.2749 11.5L4.6999 9H7.2999L8.2999 7H9.9999V6H7.6999L6.6999 8H5.2499L7.1999 4.525C7.28324 4.35833 7.40407 4.22917 7.5624 4.1375C7.72074 4.04583 7.89157 4 8.0749 4H10.4999C10.7832 4 11.0207 4.09583 11.2124 4.2875C11.4041 4.47917 11.4999 4.71667 11.4999 5V9H9.9999L8.9999 10H11.4999V13H9.2999L8.2999 11H5.9999L4.9999 12H7.6999L8.6999 14H11.4999V18.1L10.6749 19.45C10.6249 19.5333 10.5832 19.6208 10.5499 19.7125C10.5166 19.8042 10.4832 19.9 10.4499 20H8.0749ZM16.9999 19H17.9999V16H16.9999V19ZM12.4999 16.45V10H14.9999L13.9999 9H12.4999V5C12.4999 4.71667 12.5957 4.47917 12.7874 4.2875C12.9791 4.09583 13.2166 4 13.4999 4H15.9249C16.1082 4 16.2791 4.04583 16.4374 4.1375C16.5957 4.22917 16.7166 4.35833 16.7999 4.525L18.7499 8H17.2999L16.2999 6H13.9999V7H15.6999L16.6999 9H19.2999L20.7249 11.5C20.7749 11.5833 20.8082 11.6667 20.8249 11.75C20.8416 11.8333 20.8499 11.9167 20.8499 12C20.8499 12.0167 20.8082 12.1833 20.7249 12.5L20.4249 13.025L20.0499 12.45C19.7666 12 19.4041 11.6417 18.9624 11.375C18.5207 11.1083 18.0332 10.975 17.4999 10.975C16.9666 10.975 16.4791 11.1083 16.0374 11.375C15.5957 11.6417 15.2332 12 14.9499 12.45L12.4999 16.45Z" fill="#1C1B1F"/>
</g>
</svg>
